<svg width="54" height="37" viewBox="0 0 54 37" fill="none" xmlns="http://www.w3.org/2000/svg">
<rect x="0.5" y="0.5" width="53" height="36" rx="18" stroke="#2C2C30"/>
<path d="M26.25 13.0265C26.2498 12.922 26.2188 12.82 26.1606 12.7331C26.1025 12.6463 26.02 12.5787 25.9235 12.5387C25.827 12.4988 25.7208 12.4883 25.6183 12.5086C25.5158 12.529 25.4217 12.5792 25.3477 12.653L22.8098 15.1902C22.7118 15.2888 22.5953 15.3669 22.4669 15.4201C22.3386 15.4732 22.2009 15.5004 22.062 15.5H20.25C20.0511 15.5 19.8603 15.579 19.7197 15.7197C19.579 15.8603 19.5 16.0511 19.5 16.25V20.75C19.5 20.9489 19.579 21.1397 19.7197 21.2803C19.8603 21.421 20.0511 21.5 20.25 21.5H22.062C22.2009 21.4996 22.3386 21.5268 22.4669 21.5799C22.5953 21.6331 22.7118 21.7112 22.8098 21.8097L25.347 24.3477C25.4209 24.4218 25.5152 24.4723 25.6179 24.4928C25.7206 24.5132 25.827 24.5028 25.9237 24.4627C26.0204 24.4226 26.103 24.3547 26.1611 24.2676C26.2192 24.1806 26.2501 24.0782 26.25 23.9735V13.0265Z" stroke="#A3A3A3" stroke-width="1.5" stroke-linecap="round" stroke-linejoin="round"/>
<path d="M34.5 16.25L30 20.75" stroke="#A3A3A3" stroke-width="1.5" stroke-linecap="round" stroke-linejoin="round"/>
<path d="M30 16.25L34.5 20.75" stroke="#A3A3A3" stroke-width="1.5" stroke-linecap="round" stroke-linejoin="round"/>
</svg>
